<svg id="Capa_1" enable-background="new 0 0 512 512" height="512" viewBox="0 0 512 512" width="512" xmlns="http://www.w3.org/2000/svg"><g><g><g><path d="m409.415 169.996c-33.294-33.294-87.274-33.294-120.569 0l-33.541 33.541v74.679l22.898 22.898 26.517 5.303c5.657-5.657 12.657-7.775 19.564-6.981 25.391 2.917 51.823-5.363 71.299-24.838 28.327-28.326 32.896-71.431 13.832-104.602z" fill="#fce3a0"/><path d="m279.877 254.986c-2.884-25.223 5.281-51.47 24.494-70.9 28.203-28.52 71.728-33.203 105.044-14.091-3.715-6.465-8.322-12.554-13.832-18.08-33.907-33.779-89.379-33.68-123.033.351-19.213 19.43-27.378 45.676-24.494 70.9.792 6.927-1.308 13.944-6.976 19.612l10.607 53.033 26.517 5.303-5.303-26.517c5.668-5.667 7.768-12.684 6.976-19.611z" fill="#ffce71"/></g><path d="m203.958 311.721c-5.858 5.858-5.858 15.355 0 21.213l10.607 10.607c5.858 5.858 15.355 5.858 21.213 0l10.607-10.607-5.303-26.516-26.516-5.303z" fill="#676fb2"/><g><path d="m304.721 327.631c5.842-5.842 5.874-15.339 0-21.213-2.784-2.784-31.82-31.82-31.82-31.82l-45.962-3.536 10.607 53.033s17.121 17.121 17.678 17.678c5.858 5.858 15.355 5.858 21.213 0s5.858-15.355 0-21.213l7.071 7.071c5.87 5.871 15.367 5.846 21.213 0z" fill="#d4d4ff"/><path d="m258.759 302.883c-6.891-6.891-6.246-18.43 1.614-24.191 3.511-2.573 7.842-4.093 12.528-4.093l-31.82-31.82c-5.858-5.858-15.355-5.858-21.213 0-5.858 5.858-5.858 15.355 0 21.213l7.071 7.071c-5.858-5.858-15.355-5.858-21.213 0-5.858 5.858-5.858 15.355 0 21.213l31.82 31.82c0-11.716 9.497-21.213 21.213-21.213z" fill="#9ea2e3"/></g></g><g><g><path d="m169.565 377.935v-307.152c0-34.95-28.331-63.283-63.283-63.283-34.951 0-63.283 28.333-63.283 63.283v370.435c0 34.95 28.331 63.283 63.283 63.283h126.566z" fill="#ff6f4d"/><path d="m294.587 377.935h-125.022v63.283c0 34.95 28.331 63.283 63.283 63.283h61.739c34.951 0 63.283-28.333 63.283-63.283-.001-34.951-28.332-63.283-63.283-63.283z" fill="#ff8f71"/></g><g fill="#ffdbe0"><path d="m120.878 424.423c-16.212 0-29.355 10.466-29.355 23.377s13.143 23.376 29.355 23.376 29.355-10.466 29.355-23.376-13.143-23.377-29.355-23.377z"/><path d="m279.991 424.423c-16.212 0-29.355 10.466-29.355 23.377s13.143 23.376 29.355 23.376 29.355-10.466 29.355-23.376-13.143-23.377-29.355-23.377z"/></g></g><g><path d="m329.147 485.009c-9.926 7.845-21.876 11.991-34.56 11.991h-188.305c-30.759 0-55.783-25.024-55.783-55.783v-306.475c0-4.143-3.358-7.5-7.5-7.5s-7.5 3.357-7.5 7.5v306.475c0 39.03 31.753 70.783 70.783 70.783h188.305c16.094 0 31.261-5.264 43.861-15.224 3.25-2.568 3.802-7.285 1.233-10.534-2.568-3.25-7.287-3.8-10.534-1.233z"/><path d="m294.587 370.435h-117.522v-299.652c0-39.03-31.753-70.783-70.783-70.783s-70.783 31.753-70.783 70.783v33.959c0 4.143 3.358 7.5 7.5 7.5s7.5-3.357 7.5-7.5v-33.959c0-30.759 25.024-55.783 55.783-55.783s55.783 25.024 55.783 55.783v304.044l-1.801 1.801c-2.929 2.93-2.929 7.678 0 10.607 2.929 2.928 7.678 2.928 10.606 0l1.801-1.802h121.916c30.759 0 55.783 25.023 55.783 55.782 0 8.094-1.692 15.896-5.031 23.188-1.725 3.767-.068 8.218 3.697 9.941 3.774 1.727 8.22.063 9.941-3.697 4.242-9.267 6.393-19.169 6.393-29.433 0-39.026-31.753-70.779-70.783-70.779z"/><path d="m145.485 425.297v-12c0-4.143-3.358-7.5-7.5-7.5s-7.5 3.357-7.5 7.5v12c0 4.143 3.358 7.5 7.5 7.5s7.5-3.358 7.5-7.5z"/><path d="m270.383 425.297v-12c0-4.143-3.358-7.5-7.5-7.5s-7.5 3.357-7.5 7.5v12c0 4.143 3.358 7.5 7.5 7.5s7.5-3.358 7.5-7.5z"/><path d="m222.553 429.867c2.721-3.123 2.396-7.86-.727-10.582s-7.861-2.396-10.582.727c-5.724 6.569-15.901 6.564-21.62 0-2.722-3.122-7.459-3.447-10.582-.727-3.123 2.722-3.448 7.459-.727 10.582 11.703 13.429 32.546 13.416 44.238 0z"/><path d="m267.219 146.993c-20.177 20.403-29.877 48.478-26.613 77.024.269 2.35.125 5.438-1.384 8.631-8.064-3.402-17.891-1.939-24.657 4.827-6.182 6.183-8.007 15.098-5.476 22.894-15.65 5.295-20.518 25.357-8.667 37.209l3.536 3.537-5.304 5.303c-8.772 8.772-8.772 23.047 0 31.82l10.606 10.606c8.773 8.772 23.047 8.771 31.82 0l5.304-5.303c2.056 2.056 3.38 3.379 3.536 3.536 11.799 11.799 31.899 7.007 37.218-8.648 7.529 2.445 16.508.883 22.886-5.494 6.68-6.68 8.276-16.482 4.828-24.655 2.642-1.256 5.535-1.743 8.577-1.392 28.772 3.311 57.005-6.531 77.459-26.986 36.693-36.693 36.696-96.482-.011-133.3-36.838-36.699-97.054-36.625-133.658.391zm-36.745 191.244c-2.924 2.926-7.682 2.926-10.607 0l-10.606-10.605c-2.924-2.925-2.924-7.684-.001-10.607l5.304-5.303c5.369 5.369 13.881 13.881 21.213 21.213zm68.943-15.909c-2.879 2.88-7.63 2.977-10.606-.001l-7.049-7.048c-.007-.008-.015-.015-.022-.022-2.929-2.928-7.678-2.929-10.606.001-2.929 2.929-2.928 7.678 0 10.606l.012.013c2.915 2.928 2.919 7.663-.013 10.593-2.923 2.925-7.682 2.925-10.608-.001-.896-.896-39.553-39.553-40.657-40.656l-8.839-8.841c-4.705-4.704-1.364-12.799 5.303-12.799 1.92 0 3.841.731 5.303 2.193 2.93 2.928 7.677 2.929 10.607-.001 2.929-2.929 2.928-7.678 0-10.606l-7.07-7.069c-2.924-2.925-2.924-7.684 0-10.608 2.931-2.93 7.674-2.931 10.606.001l63.639 63.639c2.945 2.945 2.92 7.686 0 10.606zm90.855-165.118c30.858 30.951 30.862 81.231.008 112.085-17.199 17.198-40.94 25.473-65.139 22.69-7.084-.81-13.914.749-19.819 4.428l-54.238-54.238c3.678-5.908 5.237-12.752 4.425-19.861-2.745-24.009 5.411-47.618 22.376-64.774 30.71-31.057 81.407-31.192 112.387-.33z"/><path d="m398.788 310.773c-2.07-3.588-6.659-4.816-10.245-2.745-3.587 2.071-4.816 6.658-2.745 10.245l14.996 25.975c2.071 3.588 6.66 4.815 10.245 2.745 3.587-2.071 4.816-6.658 2.745-10.245z"/><path d="m326.69 330.023v18c0 4.143 3.357 7.5 7.5 7.5s7.5-3.357 7.5-7.5v-18c0-4.143-3.357-7.5-7.5-7.5s-7.5 3.358-7.5 7.5z"/><path d="m469.001 206.389h-18c-4.143 0-7.5 3.357-7.5 7.5s3.357 7.5 7.5 7.5h18c4.143 0 7.5-3.357 7.5-7.5s-3.358-7.5-7.5-7.5z"/><path d="m464.759 280.612-25.975-14.997c-3.586-2.07-8.175-.843-10.245 2.745-2.071 3.587-.842 8.174 2.745 10.245l25.975 14.997c3.585 2.07 8.174.843 10.245-2.745 2.071-3.586.842-8.173-2.745-10.245z"/><path d="m334.19 103.886c4.143 0 7.5-3.357 7.5-7.5v-18c0-4.143-3.357-7.5-7.5-7.5s-7.5 3.357-7.5 7.5v18c0 4.142 3.358 7.5 7.5 7.5z"/><path d="m269.005 115.984c2.071 3.587 6.657 4.816 10.245 2.745 3.587-2.071 4.816-6.658 2.745-10.245l-14.997-25.976c-2.071-3.588-6.658-4.815-10.245-2.745-3.587 2.071-4.816 6.658-2.745 10.245z"/><path d="m203.023 146.819 25.977 14.997c3.588 2.071 8.175.841 10.245-2.745 2.071-3.587.842-8.174-2.745-10.245l-25.977-14.997c-3.587-2.071-8.174-.843-10.245 2.745-2.072 3.587-.842 8.174 2.745 10.245z"/><path d="m199.38 221.389h17.728c2.053 0 4.081-.721 5.541-2.163 1.013-1 1.655-2.179 1.98-3.417 1.256-4.794-2.641-9.419-7.597-9.419h-17.338c-4.107 0-7.688 3.165-7.811 7.271-.126 4.245 3.279 7.728 7.497 7.728z"/></g></g></svg>